<?xml version="1.0" encoding="UTF-8"?>
<svg xmlns="http://www.w3.org/2000/svg" id="Layer_1" data-name="Layer 1" viewBox="0 0 24 24">
  <path d="M20.102,13.084c-.204-.433-.435-.881-.689-1.344-.225-.409-.342-.902-.339-1.427h0c.006-1.131-.067-2.277-.217-3.407-.432-3.256-3.487-5.906-6.906-5.906-3.322,0-6.376,2.649-6.809,5.906-.15,1.13-.223,2.276-.217,3.407,.003,.524-.114,1.018-.34,1.428-.253,.46-.484,.907-.687,1.338-.5,1.06-.54,2.245-.112,3.335,.426,1.089,1.258,1.931,2.341,2.369,.671,.271,1.382,.497,2.296,.656,.016,1.966,1.614,3.561,3.576,3.561s3.557-1.591,3.576-3.554c.913-.157,1.621-.383,2.308-.663,1.08-.44,1.908-1.281,2.332-2.368,.425-1.089,.384-2.272-.114-3.331Zm-8.102,7.916c-.787,0-1.441-.585-1.558-1.346,.472,.025,.987,.038,1.557,.038s1.088-.012,1.559-.036c-.118,.76-.772,1.344-1.558,1.344Zm6.353-5.312c-.223,.571-.657,1.012-1.223,1.243-1.155,.47-2.416,.761-5.13,.761-2.692,0-3.956-.292-5.122-.764-.569-.23-1.005-.671-1.229-1.244-.225-.573-.203-1.196,.06-1.754,.186-.396,.398-.805,.629-1.226,.389-.708,.592-1.539,.587-2.402-.005-1.039,.062-2.093,.199-3.132,.3-2.26,2.51-4.169,4.923-4.169,2.316,0,4.526,1.909,4.827,4.169,.138,1.04,.205,2.094,.199,3.133-.005,.865,.198,1.696,.587,2.402,.232,.424,.445,.835,.632,1.232,.262,.557,.284,1.18,.06,1.752Z"/>
</svg>
